<?xml version="1.0" encoding="utf-8"?>
<!-- Generator: Adobe Illustrator 16.0.0, SVG Export Plug-In . SVG Version: 6.00 Build 0)  -->
<!DOCTYPE svg PUBLIC "-//W3C//DTD SVG 1.1//EN" "http://www.w3.org/Graphics/SVG/1.1/DTD/svg11.dtd">
<svg version="1.1" id="Layer_1" xmlns="http://www.w3.org/2000/svg" xmlns:xlink="http://www.w3.org/1999/xlink" x="0px" y="0px"
	 width="56.689px" height="56.689px" viewBox="0 0 56.689 56.689" enable-background="new 0 0 56.689 56.689" xml:space="preserve">
<path fill="#FFFFFF" d="M26.031,20.611c0,3.056-2.467,5.533-5.509,5.533H5.51C2.467,26.144,0,23.666,0,20.611V5.533
	C0,2.479,2.467,0,5.51,0h15.012c3.042,0,5.509,2.479,5.509,5.533L26.031,20.611L26.031,20.611z"/>
<path fill="#FFFFFF" d="M56.38,20.61c0,3.056-2.468,5.534-5.51,5.534H35.858c-3.043,0-5.509-2.478-5.509-5.534V5.533
	C30.349,2.479,32.815,0,35.858,0H50.87c3.042,0,5.51,2.479,5.51,5.533V20.61z"/>
<path fill="#FFFFFF" d="M26.031,51.188c0,3.056-2.467,5.534-5.509,5.534H5.51C2.467,56.722,0,54.243,0,51.188V36.113
	c0-3.057,2.466-5.535,5.509-5.535h15.012c3.042,0,5.509,2.479,5.509,5.535L26.031,51.188L26.031,51.188z"/>
<path fill="#FFFFFF" d="M56.479,51.188c0,3.056-2.468,5.534-5.511,5.534H35.956c-3.043,0-5.51-2.479-5.51-5.534V36.113
	c0-3.057,2.467-5.535,5.51-5.535h15.012c3.043,0,5.511,2.479,5.511,5.535V51.188z"/>
</svg>
